<?xml version="1.0" encoding="UTF-8" standalone="yes"?>
<svg xmlns="http://www.w3.org/2000/svg" width="128" height="128" viewBox="0 0 128 128" fill="#000000">
  <path d="M 64.099609 31.175781 C 63.324609 31.175781 62.55 31.45 62 32 C 55.4 38.6 50.499219 46.3 47.199219 54.5 C 43.399219 51.7 39.199219 49.4 34.699219 47.5 C 33.999219 47.2 33.100391 47.2 32.400391 47.5 C 31.700391 47.8 31.100781 48.399609 30.800781 49.099609 C 28.700781 54.199609 27.299219 59.6 26.699219 65 C 26.499219 66.6 27.700781 68.100781 29.300781 68.300781 C 30.900781 68.500781 32.399609 67.299219 32.599609 65.699219 C 32.999609 61.799219 33.899219 58.000781 35.199219 54.300781 C 38.799219 56.000781 42.099609 58.1 45.099609 60.5 C 40.099609 77.3 41.899609 96 51.099609 112 C 51.899609 113.4 53.799219 113.89961 55.199219 113.09961 C 56.599219 112.29961 57.100781 110.4 56.300781 109 C 43.300781 86.2 46.6 57.600781 64 38.300781 C 74 49.300781 79.499609 63.5 79.599609 78.5 C 79.699609 94.4 73.699219 109.5 62.699219 121 C 38.699219 120.4 19.1 101.39961 17.5 77.599609 C 22.5 77.899609 27.399609 79.1 32.099609 81 C 33.599609 81.6 35.4 80.900391 36 79.400391 C 36.6 77.900391 35.900391 76.1 34.400391 75.5 C 28.100391 72.9 21.4 71.599609 14.5 71.599609 C 12.8 71.599609 11.5 72.899609 11.5 74.599609 C 11.5 94.799609 22.899219 112.29961 39.699219 121.09961 L 29 121.09961 C 27.3 121.09961 26 122.39961 26 124.09961 C 26 125.79961 27.3 127.09961 29 127.09961 L 64.300781 127.09961 L 64.400391 127.09961 L 99 127.09961 C 100.7 127.09961 102 125.79961 102 124.09961 C 102 122.39961 100.7 121.09961 99 121.09961 L 88.300781 121.09961 C 105.00078 112.29961 116.5 94.799609 116.5 74.599609 C 116.5 72.899609 115.2 71.599609 113.5 71.599609 C 109.8 71.599609 106.1 71.999219 102.5 72.699219 C 102.7 64.699219 101.19961 56.699609 98.099609 49.099609 C 97.499609 47.599609 95.699219 46.8 94.199219 47.5 C 89.499219 49.4 85.099219 51.900391 81.199219 54.900391 C 77.899219 46.400391 72.799219 38.6 66.199219 32 C 65.649219 31.45 64.874609 31.175781 64.099609 31.175781 z M 93.599609 54.300781 C 97.899609 66.700781 97.500391 80.200391 92.400391 92.400391 C 88.800391 101.10039 82.999219 108.59922 75.699219 114.19922 C 82.299219 103.49922 85.699609 91.2 85.599609 78.5 C 85.599609 72.5 84.699609 66.500391 83.099609 60.900391 C 86.299609 58.300391 89.799609 56.100781 93.599609 54.300781 z M 110.5 77.699219 C 109.2 96.099219 97.1 111.7 80.5 118 C 88.1 111.9 94.1 103.89922 98 94.699219 C 100.1 89.599219 101.49922 84.3 102.19922 79 C 104.89922 78.3 107.7 77.899219 110.5 77.699219 z M 114 121 A 3 3 0 0 0 111 124 A 3 3 0 0 0 114 127 A 3 3 0 0 0 117 124 A 3 3 0 0 0 114 121 z"/>
</svg>
